<svg xmlns="http://www.w3.org/2000/svg" viewBox="0 0 300.44 295.27"><defs><style>.cls-1{fill:#42a994;}.cls-2{fill:#14455c;}</style></defs><title>cekberita</title><g id="Layer_2" data-name="Layer 2"><g id="Layer_1-2" data-name="Layer 1"><path class="cls-1" d="M225.61,63l-76.26,91.44L104.86,99.31c-9.68-15.14-44.77,13.24-38.36,28.8l58.07,80.79c15.46,22.33,36.51,17.15,48.57-2,0,0,132.51-200.17,127.14-204.29C287-7.56,270.5,11.91,225.61,63Z"/><path class="cls-2" d="M277.35,94.25s-2.28-4.88-4.2-8.33l-21.56,32.91a111.83,111.83,0,1,1-43.54-59.95l21.53-25.55C205.44,15,174,6.41,144.43,6.41,64.79,6.41,0,71.2,0,150.84S64.79,295.27,144.43,295.27s144.43-64.79,144.43-144.43A143.48,143.48,0,0,0,277.35,94.25Z"/></g></g></svg>