<svg xmlns="http://www.w3.org/2000/svg" viewBox="0 0 1560.46 607.8"><defs><style>.cls-1{fill:#ef5e9d;}.cls-2{fill:#fdbe12;}</style></defs><title>permen</title><g id="Layer_2" data-name="Layer 2"><g id="Layer_1-2" data-name="Layer 1"><path class="cls-1" d="M1547.82,100.43c-.85-2.6-3.36-3.84-4.85-5.94a25.41,25.41,0,0,1-3.77-6.82c-.62-1.89-.64-3.68.86-4.94,1.65-1.37,3.6-.81,5.36.1a9.67,9.67,0,0,1,3.18,3.3c1.94,2.69,3.32,5.75,5.65,8.21a4.78,4.78,0,0,1,.74,6.09Z"/><path class="cls-1" d="M746.84,570.12c-.85-2.59-3.36-3.84-4.85-5.94a25.35,25.35,0,0,1-3.77-6.81c-.62-1.89-.64-3.68.86-4.94s3.6-.81,5.36.1a9.58,9.58,0,0,1,3.18,3.3c1.94,2.69,3.32,5.75,5.64,8.2a4.76,4.76,0,0,1,.74,6.09Z"/><path class="cls-1" d="M1441.35,460c-.86-2.59-3.36-3.84-4.85-5.94a25.35,25.35,0,0,1-3.77-6.81c-.62-1.89-.64-3.68.86-4.94s3.6-.81,5.36.1a9.46,9.46,0,0,1,3.17,3.3c2,2.69,3.32,5.75,5.65,8.2a4.77,4.77,0,0,1,.74,6.09Z"/><path class="cls-2" d="M18.34,14.64,14.74,28a25.79,25.79,0,0,0-1,3.8c-.35,3.31-2.32,4-5.24,3.73C5.26,35.24,6,32.9,6.25,31c.86-5.52,1.92-11,2.95-16.49a7.88,7.88,0,0,1,.88-2.32c1.35-2.41,3.64-2.61,5.92-2.05s2.11,2.57,2.34,4.47"/><path class="cls-2" d="M1512.74,35.54c-3,.28-4.24-.86-3.58-4,1.19-5.55,2.16-11.15,3.29-16.71.79-3.86,3-5.53,6.11-4.8,2.44.57,3.35,3.12,2.34,6.83-1.4,5.15-3.08,10.23-4.19,15.44-.54,2.57-1.63,3.45-4,3.21"/><path class="cls-2" d="M151.94,25.12c-.34,0-1.58.36-2.21-.84a2.87,2.87,0,0,1,.4-3.33c3.49-4.38,6.66-9,10.72-12.92a5.34,5.34,0,0,1,1.78-1.15c2.1-.81,4.46-1.17,6,.69,1.33,1.65-.18,3.66-1.21,4.8-3.72,4.17-7.76,8.06-11.74,12-.78.77-1.91.93-3.71.75"/><path class="cls-2" d="M1285.8,19.41c-1.19,5-3.83,10.55-6.22,16.21a1.81,1.81,0,0,1-2.7.94c-1.61-1.19-3.24-2.71-2.65-5,1.3-5.06,2.66-10.1,4.26-15.07.6-1.89,1.18-4.73,4-4.11s3.49,3.22,3.28,7"/><path class="cls-2" d="M1494.63,573.34c-1.2,5-3.83,10.54-6.22,16.21a1.82,1.82,0,0,1-2.71.94c-1.6-1.19-3.23-2.71-2.64-5,1.29-5.06,2.65-10.11,4.25-15.08.61-1.89,1.18-4.72,4-4.1s3.5,3.22,3.29,7"/><path class="cls-2" d="M1312.69,442.83c-1.19,5-3.83,10.54-6.22,16.21a1.81,1.81,0,0,1-2.7.94c-1.61-1.19-3.24-2.71-2.65-5,1.3-5.06,2.66-10.11,4.26-15.07.6-1.89,1.18-4.73,4-4.11s3.49,3.22,3.28,7"/><path class="cls-2" d="M1392.25,45c-1.15-.07-2.38.25-3.11-1.15s.13-2.18.89-3.12q4.59-5.68,9.12-11.43a6.11,6.11,0,0,1,2.33-2.16c2.14-.9,4.63-1.72,6.34.08s.06,3.78-1.12,5.43C1403.55,37,1399,40,1395.62,44.19c-.84,1.05-2.2.73-3.37.79"/><path class="cls-2" d="M1294.42,205.25c-1.15-.07-2.38.26-3.11-1.15s.13-2.18.89-3.12q4.6-5.68,9.12-11.43a6.27,6.27,0,0,1,2.33-2.16c2.14-.9,4.64-1.72,6.35.08s.06,3.79-1.13,5.43c-3.14,4.37-7.74,7.37-11.08,11.56-.83,1-2.19.73-3.37.79"/><path class="cls-2" d="M1066.28,592.32c-1.15-.07-2.38.26-3.11-1.14s.13-2.19.89-3.13q4.61-5.68,9.12-11.43a6.24,6.24,0,0,1,2.33-2.15c2.14-.9,4.64-1.72,6.35.08s.06,3.78-1.13,5.42c-3.14,4.38-7.74,7.37-11.08,11.57-.83,1.05-2.19.73-3.37.78"/><path class="cls-2" d="M1502.67,223.65c-1.15-.07-2.38.25-3.11-1.15s.13-2.18.89-3.12q4.6-5.69,9.12-11.43a6.11,6.11,0,0,1,2.33-2.16c2.14-.9,4.64-1.72,6.35.08s.06,3.78-1.13,5.43c-3.14,4.37-7.74,7.36-11.08,11.56-.83,1-2.19.73-3.37.79"/><path class="cls-2" d="M318.31,31.77c-1.14,4.8-3.31,9-4.83,13.5-.27.79-.54,1.58-.88,2.34-.75,1.63-1.51,3.67-3.79,2.79a4,4,0,0,1-2.45-4.67q1.89-8,4.33-15.84c.53-1.72,1.56-4.06,3.85-3.51,2.56.6,3.33,3.08,3.77,5.39"/><path class="cls-2" d="M142.35,497.53c-1.13,4.79-3.3,9-4.83,13.49a23.44,23.44,0,0,1-.88,2.34c-.75,1.63-1.5,3.67-3.79,2.8a4,4,0,0,1-2.44-4.68q1.89-8,4.32-15.84c.54-1.72,1.56-4.05,3.86-3.51,2.55.61,3.32,3.08,3.76,5.4"/><path class="cls-2" d="M257.41,232.26c-1.13,4.79-3.3,9-4.83,13.49a24.4,24.4,0,0,1-.88,2.34c-.75,1.63-1.5,3.67-3.78,2.8a4,4,0,0,1-2.45-4.68q1.89-8,4.33-15.84c.53-1.72,1.55-4.05,3.85-3.51,2.55.61,3.32,3.08,3.76,5.4"/><path class="cls-2" d="M1102.22,47.92c-1.14,4.79-3.3,9-4.83,13.49a23.44,23.44,0,0,1-.88,2.34c-.75,1.63-1.5,3.67-3.79,2.8a4,4,0,0,1-2.45-4.68c1.27-5.32,2.7-10.61,4.33-15.84.54-1.72,1.56-4.05,3.86-3.51,2.55.61,3.32,3.08,3.76,5.4"/><path class="cls-1" d="M1230.24,42c-.48,4.88-2.94,8.9-5.83,12.69a1.83,1.83,0,0,1-2.8.5c-1.77-1.35-2.72-3.52-1.89-5.26,1.48-3.13,2.24-6.48,3.6-9.61.66-1.53.9-4.22,3.51-3.53a4.48,4.48,0,0,1,3.41,5.21"/><path class="cls-1" d="M251.38,65c1.74-4.37,3.44-8.76,5.26-13.09a2,2,0,0,1,2.69-1.12A5.36,5.36,0,0,1,262.48,56c-.6,4.94-3.43,9-6.26,13a1.8,1.8,0,0,1-2.53.53A5.34,5.34,0,0,1,251.38,65"/><path class="cls-1" d="M139.47,288.46c1.74-4.38,3.43-8.77,5.25-13.1a2,2,0,0,1,2.69-1.12,5.37,5.37,0,0,1,3.15,5.21c-.6,4.94-3.43,9-6.26,13a1.79,1.79,0,0,1-2.53.53,5.31,5.31,0,0,1-2.3-4.48"/><path class="cls-1" d="M1415.52,79.64a12.34,12.34,0,0,1-1.08,2c-2.12,2.69-4.27,5.36-6.48,8a5.94,5.94,0,0,1-2.46,2c-1.54.55-3,.83-4.34-.36s-.51-2.7.2-3.87c2.24-3.72,3.92-7.91,7.93-10.24,2.37-1.38,6.25.08,6.23,2.54"/><path class="cls-1" d="M1406.25,283.74a11.43,11.43,0,0,1-1.07,2q-3.18,4.05-6.48,8a5.88,5.88,0,0,1-2.47,2c-1.53.56-3,.83-4.33-.36s-.51-2.69.2-3.87c2.24-3.71,3.91-7.9,7.92-10.24,2.37-1.38,6.25.08,6.23,2.55"/><path class="cls-1" d="M915.11,595.41a11.54,11.54,0,0,1-1.08,2c-2.12,2.7-4.27,5.36-6.48,8a5.93,5.93,0,0,1-2.46,2c-1.54.55-3,.83-4.33-.36s-.51-2.69.19-3.87c2.25-3.71,3.92-7.9,7.93-10.24,2.37-1.38,6.25.08,6.23,2.55"/><path class="cls-1" d="M172.09,66.89c1.29.26,3-.36,3.66,1.41.53,1.53-.53,2.7-1.43,3.81-2.08,2.57-4.2,5.11-6.25,7.71A6.06,6.06,0,0,1,164.13,82c-2.2.38-3.68-.6-2.94-3a24.17,24.17,0,0,1,7.5-11.41c1.05-.89,2.21-.64,3.4-.74"/><path class="cls-1" d="M70.36,345.3c1.28.26,3-.36,3.65,1.41.53,1.53-.53,2.7-1.43,3.81-2.07,2.57-4.2,5.11-6.24,7.71a6.1,6.1,0,0,1-4,2.19c-2.2.38-3.67-.6-2.94-3A24.17,24.17,0,0,1,67,346c1-.89,2.21-.64,3.41-.74"/><path class="cls-1" d="M219.26,558c1.29.25,3-.37,3.65,1.4.53,1.53-.53,2.7-1.42,3.81-2.08,2.58-4.21,5.11-6.25,7.71a6.16,6.16,0,0,1-4,2.2c-2.2.37-3.67-.6-2.94-3a24.1,24.1,0,0,1,7.5-11.4c1.05-.9,2.21-.65,3.41-.74"/><path class="cls-2" d="M37.4,0a36.62,36.62,0,0,1,7,5c-2,3.41-4.93,6-7.57,8.82-1.45,1.54-3.72,1.23-5.3.35-1.74-1-1.21-3-.37-4.44,1.94-3.34,3-7.25,6.26-9.74"/><path class="cls-2" d="M7.05,522.8a36.19,36.19,0,0,1,7,5c-2,3.42-4.92,6-7.57,8.83-1.44,1.54-3.72,1.23-5.29.35-1.75-1-1.22-3-.38-4.44,1.94-3.34,3-7.25,6.27-9.74"/><path class="cls-2" d="M1557,42.72c2.73-.11,4.08,1.75,3.18,4.35-1.29,3.7-7.35,7.74-11.25,7.52-1.5-.08-2.92-.43-3.4-2s.6-2.48,1.75-3.16a15.29,15.29,0,0,0,4.17-3.84c2.11-2.66,2.09-2.68,5.55-2.83"/><path class="cls-2" d="M52.78,42.9c1.85-.25,3.3,0,4.13,1.66s.21,3.11-.92,4.52a18.14,18.14,0,0,1-8.24,5.35c-1.83.68-4.26.62-5.24-1.71-.82-2,.94-2.82,2.27-3.87a23.71,23.71,0,0,0,4.3-4.19c1.07-1.41,2.19-2.09,3.7-1.76"/><path class="cls-2" d="M84.63,191.2c1.85-.25,3.3,0,4.14,1.66s.2,3.12-.93,4.52a18,18,0,0,1-8.23,5.36c-1.83.67-4.26.61-5.24-1.72-.83-2,.93-2.81,2.26-3.86A23.76,23.76,0,0,0,80.94,193c1.07-1.41,2.18-2.1,3.69-1.77"/><path class="cls-2" d="M373.91,415.88c1.85-.25,3.3,0,4.13,1.66s.21,3.11-.92,4.52a18.14,18.14,0,0,1-8.24,5.35c-1.83.68-4.26.62-5.24-1.71-.82-2,.94-2.82,2.27-3.87a23.71,23.71,0,0,0,4.3-4.19c1.07-1.41,2.19-2.09,3.7-1.76"/></g></g></svg>