<svg xmlns="http://www.w3.org/2000/svg" viewBox="0 0 1010.45 586.72"><defs><style>.cls-1{fill:#7c994d;}.cls-2{fill:#8baa4e;}</style></defs><title>boxart</title><g id="Layer_2" data-name="Layer 2"><g id="Layer_1-2" data-name="Layer 1"><polygon class="cls-1" points="990.96 568.37 993.91 507.22 1002.18 381.55 1002.18 301.44 993.91 241.69 993.91 209.1 1002.18 191.45 1002.18 171.09 1010.45 133.07 998.05 95.05 989.48 22.05 897.41 16.3 850.54 16.3 809.19 10.87 672.72 10.87 587.25 21.73 521.08 10.87 460.43 19.01 312.71 23.09 203.12 0 124.07 19.01 33.08 21.73 20.68 27.16 6.89 107.27 17.92 181.95 0 309.03 6.91 355.63 0 395.12 0 451.22 15.16 480.12 12.41 528.41 23.71 557.97 97.88 578.43 148.88 567 199.88 578.43 330.84 566.68 407.27 586.72 482.09 572.14 596.9 578.43 676.85 582.23 709.94 567 743.02 578.43 836.76 578.43 990.96 568.37"/><polygon class="cls-2" points="42.38 31.33 16.54 82.07 8.27 207.75 8.27 287.86 16.54 347.6 16.54 380.19 8.27 397.84 8.27 418.21 0 456.23 12.41 494.24 42.38 557.97 113.04 573 159.91 573 201.26 578.43 337.74 578.43 423.2 567.56 489.37 578.43 550.03 570.28 697.74 566.21 822.98 578.43 886.39 570.28 968.07 557.97 991.84 550.16 1003.56 482.02 992.53 407.34 1003.56 245.77 995.29 230.83 1010.45 194.17 1010.45 138.08 995.29 109.18 998.05 60.88 976.03 26.63 912.58 10.87 861.57 22.3 810.57 10.87 679.61 22.61 588.63 16.3 569.33 22.61 413.56 10.87 333.6 10.87 300.52 22.3 267.43 10.87 173.69 10.87 42.38 31.33"/></g></g></svg>