<svg xmlns="http://www.w3.org/2000/svg" viewBox="0 0 1062.52 605.53"><defs><style>.cls-1{fill:#759aaf;}.cls-2{fill:#96bad6;}</style></defs><title>questionborder</title><g id="Layer_2" data-name="Layer 2"><g id="Layer_1-2" data-name="Layer 1"><polygon class="cls-1" points="1042.02 586.23 1045.13 521.93 1053.83 389.78 1053.83 305.54 1045.13 242.72 1045.13 208.46 1053.83 189.89 1053.83 168.48 1062.52 128.5 1049.48 88.52 1040.47 11.76 943.66 5.71 894.38 5.71 850.89 0 707.38 0 617.51 11.42 547.93 0 484.15 8.57 328.83 12.85 197.14 0 130.46 8.57 34.79 11.42 21.74 17.13 7.25 101.37 18.84 179.9 0 313.53 7.26 362.53 0 404.06 0 463.04 15.95 493.43 13.05 544.22 24.93 575.29 102.92 596.81 156.55 584.79 210.19 596.81 347.89 584.46 428.26 605.53 506.93 590.2 627.66 596.81 711.73 600.81 746.52 584.79 781.31 596.81 879.88 596.81 1042.02 586.23"/><polygon class="cls-2" points="44.57 21.52 17.39 74.88 8.7 207.03 8.7 291.26 17.39 354.09 17.39 388.35 8.7 406.92 8.7 428.33 0 468.31 13.05 508.29 44.57 575.29 118.86 591.1 168.15 591.1 211.63 596.81 355.14 596.81 445.01 585.39 514.59 596.81 578.37 588.24 733.7 583.96 865.38 596.81 932.06 588.24 1017.96 575.29 1042.95 567.09 1055.28 495.44 1043.68 416.91 1055.28 247 1046.58 231.3 1062.52 192.75 1062.52 133.77 1046.58 103.38 1049.48 52.59 1026.33 16.58 959.61 0 905.97 12.02 852.34 0 714.63 12.35 618.96 5.71 598.67 12.35 434.87 0 350.79 0 316 12.02 281.21 0 182.64 0 44.57 21.52"/></g></g></svg>